<mxfile host="app.diagrams.net" modified="2022-12-12T04:04:49.991Z" agent="5.0 (Macintosh; Intel Mac OS X 10_15_7) AppleWebKit/537.36 (KHTML, like Gecko) Chrome/107.0.0.0 Safari/537.36" version="20.6.0" etag="1ggcKa86BrBAQuB1EDsu" type="github">
  <diagram id="g7mZL4UJyp3ImM8-Kb3E" name="第 1 页">
    <mxGraphModel dx="1298" dy="866" grid="0" gridSize="10" guides="1" tooltips="1" connect="1" arrows="1" fold="1" page="1" pageScale="1" pageWidth="3300" pageHeight="4681" math="0" shadow="0">
      <root>
        <mxCell id="0" />
        <mxCell id="1" parent="0" />
        <mxCell id="zIHW5CxmA5vY3RCyEzZJ-4" value="" style="edgeStyle=orthogonalEdgeStyle;rounded=0;orthogonalLoop=1;jettySize=auto;html=1;fontStyle=0" edge="1" parent="1" source="zIHW5CxmA5vY3RCyEzZJ-2" target="zIHW5CxmA5vY3RCyEzZJ-3">
          <mxGeometry relative="1" as="geometry" />
        </mxCell>
        <mxCell id="zIHW5CxmA5vY3RCyEzZJ-2" value="Intercept receive api,get RTT" style="rounded=1;whiteSpace=wrap;html=1;fontStyle=0" vertex="1" parent="1">
          <mxGeometry x="283" y="81" width="180" height="46" as="geometry" />
        </mxCell>
        <mxCell id="zIHW5CxmA5vY3RCyEzZJ-10" value="" style="edgeStyle=orthogonalEdgeStyle;rounded=0;orthogonalLoop=1;jettySize=auto;html=1;fontStyle=0" edge="1" parent="1" source="zIHW5CxmA5vY3RCyEzZJ-3" target="zIHW5CxmA5vY3RCyEzZJ-7">
          <mxGeometry relative="1" as="geometry" />
        </mxCell>
        <mxCell id="zIHW5CxmA5vY3RCyEzZJ-11" value="Y" style="edgeLabel;html=1;align=center;verticalAlign=middle;resizable=0;points=[];fontStyle=0" vertex="1" connectable="0" parent="zIHW5CxmA5vY3RCyEzZJ-10">
          <mxGeometry x="0.234" y="-1" relative="1" as="geometry">
            <mxPoint as="offset" />
          </mxGeometry>
        </mxCell>
        <mxCell id="zIHW5CxmA5vY3RCyEzZJ-3" value="Is poor X times in Y&lt;br&gt;minutes consecutive?" style="rhombus;whiteSpace=wrap;html=1;fontStyle=0" vertex="1" parent="1">
          <mxGeometry x="284.5" y="155" width="177" height="138" as="geometry" />
        </mxCell>
        <mxCell id="zIHW5CxmA5vY3RCyEzZJ-5" value="" style="endArrow=classic;html=1;rounded=0;entryX=1;entryY=0.5;entryDx=0;entryDy=0;fontStyle=0" edge="1" parent="1" target="zIHW5CxmA5vY3RCyEzZJ-2">
          <mxGeometry width="50" height="50" relative="1" as="geometry">
            <mxPoint x="461.5" y="223.5" as="sourcePoint" />
            <mxPoint x="506" y="60" as="targetPoint" />
            <Array as="points">
              <mxPoint x="506" y="224" />
              <mxPoint x="506" y="104" />
            </Array>
          </mxGeometry>
        </mxCell>
        <mxCell id="zIHW5CxmA5vY3RCyEzZJ-6" value="N" style="edgeLabel;html=1;align=center;verticalAlign=middle;resizable=0;points=[];fontStyle=0" vertex="1" connectable="0" parent="zIHW5CxmA5vY3RCyEzZJ-5">
          <mxGeometry x="-0.7734" y="-1" relative="1" as="geometry">
            <mxPoint as="offset" />
          </mxGeometry>
        </mxCell>
        <mxCell id="zIHW5CxmA5vY3RCyEzZJ-12" value="" style="edgeStyle=orthogonalEdgeStyle;rounded=0;orthogonalLoop=1;jettySize=auto;html=1;fontStyle=0" edge="1" parent="1" source="zIHW5CxmA5vY3RCyEzZJ-7" target="zIHW5CxmA5vY3RCyEzZJ-8">
          <mxGeometry relative="1" as="geometry" />
        </mxCell>
        <mxCell id="zIHW5CxmA5vY3RCyEzZJ-7" value="Ping Google.com M times" style="rounded=1;whiteSpace=wrap;html=1;fontStyle=0" vertex="1" parent="1">
          <mxGeometry x="283" y="330" width="180" height="46" as="geometry" />
        </mxCell>
        <mxCell id="zIHW5CxmA5vY3RCyEzZJ-20" value="" style="edgeStyle=orthogonalEdgeStyle;rounded=0;orthogonalLoop=1;jettySize=auto;html=1;fontStyle=0" edge="1" parent="1" source="zIHW5CxmA5vY3RCyEzZJ-8" target="zIHW5CxmA5vY3RCyEzZJ-19">
          <mxGeometry relative="1" as="geometry" />
        </mxCell>
        <mxCell id="zIHW5CxmA5vY3RCyEzZJ-22" value="N" style="edgeLabel;html=1;align=center;verticalAlign=middle;resizable=0;points=[];fontStyle=0" vertex="1" connectable="0" parent="zIHW5CxmA5vY3RCyEzZJ-20">
          <mxGeometry x="-0.189" y="-2" relative="1" as="geometry">
            <mxPoint as="offset" />
          </mxGeometry>
        </mxCell>
        <mxCell id="zIHW5CxmA5vY3RCyEzZJ-21" value="" style="edgeStyle=orthogonalEdgeStyle;rounded=0;orthogonalLoop=1;jettySize=auto;html=1;fontStyle=0" edge="1" parent="1" source="zIHW5CxmA5vY3RCyEzZJ-8" target="zIHW5CxmA5vY3RCyEzZJ-18">
          <mxGeometry relative="1" as="geometry" />
        </mxCell>
        <mxCell id="zIHW5CxmA5vY3RCyEzZJ-27" value="Y" style="edgeLabel;html=1;align=center;verticalAlign=middle;resizable=0;points=[];fontStyle=0" vertex="1" connectable="0" parent="zIHW5CxmA5vY3RCyEzZJ-21">
          <mxGeometry x="-0.0852" y="-2" relative="1" as="geometry">
            <mxPoint as="offset" />
          </mxGeometry>
        </mxCell>
        <mxCell id="zIHW5CxmA5vY3RCyEzZJ-8" value="Is all connected normally?" style="rhombus;whiteSpace=wrap;html=1;fontStyle=0" vertex="1" parent="1">
          <mxGeometry x="291.38" y="399" width="163.25" height="133" as="geometry" />
        </mxCell>
        <mxCell id="zIHW5CxmA5vY3RCyEzZJ-15" value="Tip: &quot;Network is unstable, please reach out IT team for assistance.&quot;" style="rounded=1;whiteSpace=wrap;html=1;fontStyle=0" vertex="1" parent="1">
          <mxGeometry x="593" y="722" width="261" height="47" as="geometry" />
        </mxCell>
        <mxCell id="zIHW5CxmA5vY3RCyEzZJ-31" value="" style="edgeStyle=orthogonalEdgeStyle;rounded=0;orthogonalLoop=1;jettySize=auto;html=1;fontStyle=0" edge="1" parent="1" source="zIHW5CxmA5vY3RCyEzZJ-18" target="zIHW5CxmA5vY3RCyEzZJ-30">
          <mxGeometry relative="1" as="geometry" />
        </mxCell>
        <mxCell id="zIHW5CxmA5vY3RCyEzZJ-32" value="Y" style="edgeLabel;html=1;align=center;verticalAlign=middle;resizable=0;points=[];fontStyle=0" vertex="1" connectable="0" parent="zIHW5CxmA5vY3RCyEzZJ-31">
          <mxGeometry x="-0.3017" y="-2" relative="1" as="geometry">
            <mxPoint y="2" as="offset" />
          </mxGeometry>
        </mxCell>
        <mxCell id="zIHW5CxmA5vY3RCyEzZJ-18" value="Is the latest RTT poor?" style="rhombus;whiteSpace=wrap;html=1;fontStyle=0" vertex="1" parent="1">
          <mxGeometry x="291.38" y="569" width="163" height="125" as="geometry" />
        </mxCell>
        <mxCell id="zIHW5CxmA5vY3RCyEzZJ-23" value="" style="edgeStyle=orthogonalEdgeStyle;rounded=0;orthogonalLoop=1;jettySize=auto;html=1;fontStyle=0" edge="1" parent="1" source="zIHW5CxmA5vY3RCyEzZJ-19" target="zIHW5CxmA5vY3RCyEzZJ-15">
          <mxGeometry relative="1" as="geometry" />
        </mxCell>
        <mxCell id="zIHW5CxmA5vY3RCyEzZJ-24" value="Y" style="edgeLabel;html=1;align=center;verticalAlign=middle;resizable=0;points=[];fontStyle=0" vertex="1" connectable="0" parent="zIHW5CxmA5vY3RCyEzZJ-23">
          <mxGeometry x="-0.3556" y="2" relative="1" as="geometry">
            <mxPoint y="1" as="offset" />
          </mxGeometry>
        </mxCell>
        <mxCell id="zIHW5CxmA5vY3RCyEzZJ-19" value="Is the latest RTT poor?" style="rhombus;whiteSpace=wrap;html=1;fontStyle=0" vertex="1" parent="1">
          <mxGeometry x="642" y="403" width="163" height="125" as="geometry" />
        </mxCell>
        <mxCell id="zIHW5CxmA5vY3RCyEzZJ-25" value="" style="endArrow=classic;html=1;rounded=0;entryX=1;entryY=0.5;entryDx=0;entryDy=0;fontStyle=0" edge="1" parent="1" target="zIHW5CxmA5vY3RCyEzZJ-2">
          <mxGeometry width="50" height="50" relative="1" as="geometry">
            <mxPoint x="722.5" y="403" as="sourcePoint" />
            <mxPoint x="727" y="17" as="targetPoint" />
            <Array as="points">
              <mxPoint x="727" y="101" />
            </Array>
          </mxGeometry>
        </mxCell>
        <mxCell id="zIHW5CxmA5vY3RCyEzZJ-26" value="N" style="edgeLabel;html=1;align=center;verticalAlign=middle;resizable=0;points=[];fontStyle=0" vertex="1" connectable="0" parent="zIHW5CxmA5vY3RCyEzZJ-25">
          <mxGeometry x="-0.6094" y="-2" relative="1" as="geometry">
            <mxPoint as="offset" />
          </mxGeometry>
        </mxCell>
        <mxCell id="zIHW5CxmA5vY3RCyEzZJ-28" value="" style="endArrow=classic;html=1;rounded=0;entryX=0;entryY=0.5;entryDx=0;entryDy=0;fontStyle=0;exitX=0;exitY=0.5;exitDx=0;exitDy=0;" edge="1" parent="1" source="zIHW5CxmA5vY3RCyEzZJ-18" target="zIHW5CxmA5vY3RCyEzZJ-2">
          <mxGeometry width="50" height="50" relative="1" as="geometry">
            <mxPoint x="291.38" y="653.5" as="sourcePoint" />
            <mxPoint x="202" y="43" as="targetPoint" />
            <Array as="points">
              <mxPoint x="204" y="632" />
              <mxPoint x="202" y="103" />
            </Array>
          </mxGeometry>
        </mxCell>
        <mxCell id="zIHW5CxmA5vY3RCyEzZJ-29" value="N" style="edgeLabel;html=1;align=center;verticalAlign=middle;resizable=0;points=[];fontStyle=0" vertex="1" connectable="0" parent="zIHW5CxmA5vY3RCyEzZJ-28">
          <mxGeometry x="-0.9047" relative="1" as="geometry">
            <mxPoint as="offset" />
          </mxGeometry>
        </mxCell>
        <mxCell id="zIHW5CxmA5vY3RCyEzZJ-30" value="Tip: &quot;Server is unstable, please reach out PS team for assistance&quot;" style="rounded=1;whiteSpace=wrap;html=1;fontStyle=0" vertex="1" parent="1">
          <mxGeometry x="242.51" y="722" width="261" height="47" as="geometry" />
        </mxCell>
      </root>
    </mxGraphModel>
  </diagram>
</mxfile>
